{
  "accessors": [
    {
      "bufferView": 0,
      "componentType": 5126,
      "count": 61638,
      "max": [
        0.0331929996609688,
        0.0289200004190207,
        0.0318549983203411
      ],
      "min": [
        -0.0331120006740093,
        -0.0287970006465912,
        -0.0317550003528595
      ],
      "type": "VEC3"
    },
    {
      "bufferView": 1,
      "componentType": 5126,
      "count": 61638,
      "type": "VEC3"
    },
    {
      "bufferView": 2,
      "componentType": 5126,
      "count": 61638,
      "type": "VEC2"
    },
    {
      "bufferView": 3,
      "componentType": 5123,
      "count": 299724,
      "type": "SCALAR"
    }
  ],
  "asset": {
    "generator": "MeshSmith mesh conversion tool",
    "version": "2.0"
  },
  "bufferViews": [
    {
      "buffer": 0,
      "byteLength": 739656,
      "target": 34962
    },
    {
      "buffer": 0,
      "byteLength": 739656,
      "byteOffset": 739656,
      "target": 34962
    },
    {
      "buffer": 0,
      "byteLength": 493104,
      "byteOffset": 1479312,
      "target": 34962
    },
    {
      "buffer": 0,
      "byteLength": 599448,
      "byteOffset": 1972416,
      "target": 34963
    }
  ],
  "buffers": [
    {
      "byteLength": 2571864,
      "uri": "usnm_14-100k-2048.bin"
    }
  ],
  "images": [
    {
      "uri": "usnm_14-100k-2048-diffuse.jpg"
    },
    {
      "uri": "usnm_14-100k-2048-occlusion.jpg"
    },
    {
      "uri": "usnm_14-100k-2048-normals.jpg"
    }
  ],
  "materials": [
    {
      "name": "default",
      "normalTexture": {
        "index": 2
      },
      "occlusionTexture": {
        "index": 1
      },
      "pbrMetallicRoughness": {
        "baseColorTexture": {
          "index": 0
        },
        "metallicFactor": 0.100000001490116,
        "roughnessFactor": 0.800000011920929
      }
    }
  ],
  "meshes": [
    {
      "primitives": [
        {
          "attributes": {
            "NORMAL": 1,
            "POSITION": 0,
            "TEXCOORD_0": 2
          },
          "indices": 3,
          "material": 0,
          "mode": 4
        }
      ]
    }
  ],
  "nodes": [
    {
      "mesh": 0
    }
  ],
  "scene": 0,
  "scenes": [
    {
      "nodes": [
        0
      ]
    }
  ],
  "textures": [
    {
      "source": 0
    },
    {
      "source": 1
    },
    {
      "source": 2
    }
  ]
}